<?xml version="1.0" encoding="UTF-8"?>

<svg xmlns="http://www.w3.org/2000/svg" version="1.1" width="282px" height="96px" viewBox="0 0 282 96">

    <title>Libero Publisher Logo</title>

    <defs>
        <style>

            .black {
                fill: #212121;
            }

            .grey {
                fill: #666666;
            }

            .light-red {
                fill: #cf0c4e;
            }

            .dark-red {
                fill: #732060;
            }

            .light-green {
                fill: #629f43;
            }

            .dark-green {
                fill: #046535;
            }

            .light-blue {
                fill: #0a9dd9;
            }

            .dark-blue {
                fill: #0961ab;
            }

        </style>
    </defs>

    <g id="logo" class="black">
        <polygon class="dark-red" points="82 25.39 64 35.78 64 82.8 82 72.13 82 25.39"/>
        <polygon class="light-red" points="44.5 24.52 64 35.78 82 25.39 62.74 13.98 44.5 24.52"/>
        <polygon class="light-green" points="2 51.37 2 72.15 42.5 95.53 42.5 74.75 2 51.37"/>
        <polygon class="dark-green" points="62 63.49 42.5 74.75 42.5 95.53 62 83.98 62 63.49"/>
        <polygon class="dark-blue" points="2 25.38 2 47.9 20 58.29 20 35.78 2 25.38"/>
        <polygon class="light-blue" points="2 25.38 20 35.78 60.27 12.52 42.5 2 2 25.38"/>
    </g>

    <g id="text">

        <g class="black">
            <path d="M100.54,48.86V29h4.82V44.68H113v4.18Z"/>
            <path d="M118.77,48.86V29h4.82V48.86Z"/>
            <path d="M146.63,43.09a5.35,5.35,0,0,1-.64,2.73,5.12,5.12,0,0,1-1.71,1.78,7.52,7.52,0,0,1-2.42,1,13,13,0,0,
                1-2.79.3h-7.89V29h7.89a11.94,11.94,0,0,1,2.35.24,7.08,7.08,0,0,1,2.19.81,4.41,4.41,0,0,1,2.21,4.05,4.12,
                4.12,0,0,1-.9,2.73,4.89,4.89,0,0,1-2.35,1.55v.06a5.06,5.06,0,0,1,1.58.52,4.44,4.44,0,0,1,1.29,1,4.51,
                4.51,0,0,1,.87,1.37A4.77,4.77,0,0,1,146.63,43.09Zm-5.43-8.32a1.6,1.6,0,0,0-.77-1.47,4.47,4.47,0,0,
                0-2.28-.46H135.8v4.09h2.57a3.44,3.44,0,0,0,2.09-.55A1.88,1.88,0,0,0,141.2,34.77Zm.64,7.87a1.75,1.75,0,0,
                0-.92-1.71,5.53,5.53,0,0,0-2.46-.47H135.8V45h2.68a6.85,6.85,0,0,0,1.17-.1,3.49,3.49,0,0,0,1.09-.35,2.09,
                2.09,0,0,0,.8-.71A2.14,2.14,0,0,0,141.84,42.64Z"/>
            <path d="M153.29,48.86V29h13.33v4h-8.7v3.76h8.23v3.83h-8.23v4.12h9.21v4.09Z"/>
            <path d="M184.4,48.86,180.1,41h-1.63v7.87h-4.68V29h7.56a13,13,0,0,1,2.79.3,7.07,7.07,0,0,1,2.43,1,5.1,5.1,0,
                0,1,1.72,1.85,5.75,5.75,0,0,1,.65,2.85,5.24,5.24,0,0,1-1.09,3.39,5.93,5.93,0,0,1-3,2L190,
                48.86Zm-.19-13.75a2,2,0,0,0-.3-1.14,2.13,2.13,0,0,0-.76-.67,3.33,3.33,0,0,0-1-.32A7.08,7.08,0,0,0,181,
                32.9h-2.56v4.62h2.28a8.58,8.58,0,0,0,1.21-.1,3.87,3.87,0,0,0,1.12-.35,2.09,2.09,0,0,0,.83-.73A2.13,2.13,
                0,0,0,184.21,35.11Z"/>
            <path d="M216.52,38.86a11.09,11.09,0,0,1-.81,4.3,9.73,9.73,0,0,1-2.26,3.33A10,10,0,0,1,210,48.63a12.57,
                2.57,0,0,1-8.61,0A10.07,10.07,0,0,1,198,46.49a9.73,9.73,0,0,1-2.26-3.33,11.09,11.09,0,0,1-.81-4.3,11,11,
                0,0,1,.81-4.3A9.44,9.44,0,0,1,198,31.3a9.91,9.91,0,0,1,3.41-2.07,13.06,13.06,0,0,1,8.61,0,9.81,9.81,0,0,
                1,3.43,2.07,9.44,9.44,0,0,1,2.26,3.26A11,11,0,0,1,216.52,38.86Zm-5.13,0a6.82,6.82,0,0,0-.42-2.41,5.8,
                5.8,0,0,0-1.16-1.92A5.37,5.37,0,0,0,208,33.27a5.81,5.81,0,0,0-2.31-.46,5.49,5.49,0,0,0-4.09,1.72,5.64,
                5.64,0,0,0-1.16,1.92,7.41,7.41,0,0,0,0,4.89,5.82,5.82,0,0,0,1.17,1.94,5.16,5.16,0,0,0,1.77,1.28,6,6,0,0,
                0,4.6,0,5.44,5.44,0,0,0,1.79-1.28A5.82,5.82,0,0,0,211,41.34,7.09,7.09,0,0,0,211.39,38.86Z"/>
        </g>

        <g class="grey">
            <path d="M115.58,65.11a6,6,0,0,1-.64,2.92A5.2,5.2,0,0,1,113.2,70,7.74,7.74,0,0,1,110.68,71a13.12,13.12,0,0,
                1-3,.33h-2.38v7.48h-4.79V59h7.28a13.3,13.3,0,0,1,3,.33,7.24,7.24,0,0,1,2.47,1A5,5,0,0,1,115,62.24,6.19,
                6.19,0,0,1,115.58,65.11Zm-4.79,0a2.11,2.11,0,0,0-.28-1.15,1.94,1.94,0,0,0-.75-.7,3.34,3.34,0,0,
                0-1.08-.34,10.1,10.1,0,0,0-1.25-.08h-2.1v4.67h2a6.74,6.74,0,0,0,1.29-.11,3.2,3.2,0,0,0,1.1-.39,2,2,0,0,
                0,.77-.74A2.19,2.19,0,0,0,110.79,65.14Z"/>
            <path d="M138.16,74.61a7,7,0,0,1-1.72,2.52,8,8,0,0,1-2.7,1.64,10.11,10.11,0,0,1-3.52.59,10,10,0,0,
                1-3.52-.59A7.52,7.52,0,0,1,124,77.13a7.06,7.06,0,0,1-1.68-2.52,8.53,8.53,0,0,1-.59-3.26V59h4.76V71a5.56,
                5.56,0,0,0,.21,1.54,3.85,3.85,0,0,0,.64,1.3,3,3,0,0,0,1.15.91,4.52,4.52,0,0,0,3.44,0,3.14,3.14,0,0,0,
                1.17-.91,3.68,3.68,0,0,0,.64-1.3A6,6,0,0,0,134,71V59h4.78V71.35A8.53,8.53,0,0,1,138.16,74.61Z"/>
            <path d="M161.58,73.06a5.35,5.35,0,0,1-.64,2.73,5.12,5.12,0,0,1-1.71,1.78,7.3,7.3,0,0,1-2.42,1,12.89,12.89,
                0,0,1-2.79.3h-7.89V59H154a12.12,12.12,0,0,1,2.36.24,7,7,0,0,1,2.18.81,4.77,4.77,0,0,1,1.6,1.56,4.59,
                4.59,0,0,1,.61,2.49,4.17,4.17,0,0,1-.89,2.73,5,5,0,0,1-2.36,1.55v.06a5.5,5.5,0,0,1,1.59.52,4.53,4.53,0,
                0,1,1.28,1,4.37,4.37,0,0,1,.87,1.38A4.49,4.49,0,0,1,161.58,73.06Zm-5.43-8.32a1.58,1.58,0,0,0-.77-1.47,
                4.58,4.58,0,0,0-2.28-.46h-2.35V66.9h2.57a3.42,3.42,0,0,0,2.09-.55A1.88,1.88,0,0,0,156.15,64.74Zm.65,
                7.87a1.75,1.75,0,0,0-.93-1.71,5.5,5.5,0,0,0-2.46-.47h-2.66V75h2.69a7.85,7.85,0,0,0,1.16-.09,4.1,4.1,0,0,
                0,1.09-.35,2,2,0,0,0,1.11-1.91Z"/>
            <path d="M168.25,78.83V59h4.81V74.66h7.68v4.17Z"/>
            <path d="M186.48,78.83V59h4.81V78.83Z"/>
            <path d="M209.35,64.16a4.29,4.29,0,0,0-1.61-1.25,4.49,4.49,0,0,0-1.92-.46,6.22,6.22,0,0,0-1,.08,2.86,2.86,0,
                0,0-.89.32,2.14,2.14,0,0,0-.65.62,1.61,1.61,0,0,0-.27,1,1.59,1.59,0,0,0,.21.84,1.83,1.83,0,0,0,.62.58,
                5.37,5.37,0,0,0,1,.47c.38.14.8.28,1.26.43.68.22,1.37.47,2.1.74a7.8,7.8,0,0,1,2,1.08,5.53,5.53,0,0,1,
                1.48,1.67,4.71,4.71,0,0,1,.59,2.47,6.49,6.49,0,0,1-.63,3,5.87,5.87,0,0,1-1.69,2.06,7.23,7.23,0,0,1-2.44,
                1.2,10.23,10.23,0,0,1-2.83.39,11.76,11.76,0,0,1-4.11-.74,8.72,8.72,0,0,1-3.31-2.11l3.14-3.2a5.84,5.84,0,
                0,0,1.92,1.5,5.2,5.2,0,0,0,2.36.6,4.48,4.48,0,0,0,1-.11,2.4,2.4,0,0,0,.88-.36,2,2,0,0,0,.61-.67,2.25,
                2.25,0,0,0,.22-1,1.55,1.55,0,0,0-.28-1,2.7,2.7,0,0,0-.8-.72,6.54,6.54,0,0,0-1.29-.59l-1.75-.57a16.29,
                16.29,0,0,1-1.86-.73,6,6,0,0,1-1.62-1.08A4.89,4.89,0,0,1,198.67,67a5.43,5.43,0,0,1-.43-2.28A5.5,5.5,0,0,
                1,200.67,60a7.43,7.43,0,0,1,2.46-1.11,11.39,11.39,0,0,1,2.78-.35,10.33,10.33,0,0,1,3.43.62,8.68,8.68,0,
                0,1,3.06,1.82Z"/>
            <path d="M231.44,78.83V70.54h-7.73v8.29h-4.78V59h4.78v7.51h7.73V59h4.79V78.83Z"/>
            <path d="M243.82,78.83V59h13.33v4h-8.71v3.75h8.23v3.83h-8.23v4.12h9.21v4.09Z"/>
            <path d="M274.93,78.83,270.62,71H269v7.87h-4.68V59h7.56a12.89,12.89,0,0,1,2.79.3,7.24,7.24,0,0,1,2.44,1,
                5.36,5.36,0,0,1,1.72,1.85,5.79,5.79,0,0,1,.64,2.86,5.23,5.23,0,0,1-1.09,3.38,5.94,5.94,0,0,1-3,2l5.18,
                8.49Zm-.2-13.75a1.94,1.94,0,0,0-.3-1.13,2,2,0,0,0-.76-.68,3.52,3.52,0,0,0-1-.32,8.53,8.53,0,0,
                0-1.11-.08H269v4.62h2.28a7.22,7.22,0,0,0,1.21-.1,3.73,3.73,0,0,0,1.13-.35,2,2,0,0,0,1.15-2Z"/>
        </g>

    </g>

</svg>
